<svg width="149" height="24" viewBox="0 0 149 24" fill="none" xmlns="http://www.w3.org/2000/svg">
<g clip-path="url(#clip0)">
<path d="M140.717 23.898C145.743 23.898 148.615 21.436 148.615 18.154C148.615 15.795 146.974 14.051 143.384 13.231L139.692 12.513C137.538 12.103 136.82 11.693 136.82 10.872C136.82 9.84596 137.845 9.23096 139.794 9.23096C141.845 9.23096 143.384 9.74396 143.897 11.692H148.307C148.102 8.10196 145.435 5.64196 140.102 5.64196C135.486 5.64196 132.307 7.48696 132.307 11.18C132.307 13.744 134.051 15.385 137.845 16.205L142.051 17.128C143.692 17.436 144.102 17.846 144.102 18.564C144.102 19.692 142.871 20.308 140.82 20.308C138.256 20.308 136.82 19.795 136.307 17.846H131.897C132.512 21.538 135.179 23.898 140.717 23.898ZM130.563 23.488H125.845C122.871 23.488 121.23 21.641 121.23 19.282V10.052H117.948V6.15296H121.333V1.23096H125.743V6.15396H130.666V10.051H125.743V18.154C125.743 19.077 126.358 19.487 127.384 19.487H130.666V23.487H130.563V23.488ZM111.692 14.769C111.692 11.795 109.333 9.43596 106.461 9.43596C103.589 9.43596 101.23 11.795 101.23 14.769C101.23 17.744 103.589 20.103 106.461 20.103C109.333 20.103 111.692 17.743 111.692 14.769ZM96.82 14.769C96.82 9.74396 100.923 5.64096 106.051 5.64096C108.102 5.64096 110.051 6.35896 111.589 7.69196V6.15396H115.999V23.487H111.589V21.95C110.052 23.2806 108.084 24.0089 106.051 24C100.923 23.898 96.821 19.795 96.821 14.77L96.82 14.769Z" fill="#5FB709"/>
<path d="M68.717 9.333C66.461 9.333 64.923 11.077 64.923 13.743V23.487H61.538V6.359H64.923V8.41C65.743 7.077 67.179 6.154 68.923 6.154H70.153V9.334H68.717V9.333ZM45.436 13.333H55.794C55.282 10.769 53.128 8.923 50.564 8.923C48.102 8.923 46.051 10.769 45.436 13.333ZM50.666 5.949C55.589 5.949 59.179 9.744 59.179 14.872V16H45.23C45.743 18.77 48 20.923 50.871 20.923C52.821 20.923 54.564 20.103 55.794 18.461L58.256 20.308C56.512 22.564 53.948 24 50.871 24C45.743 24 41.743 20.102 41.743 15.077C41.948 10.051 45.743 5.949 50.666 5.949ZM30.974 20.82C32.5513 20.8189 34.0637 20.192 35.1791 19.0768C36.2944 17.9616 36.9217 16.4493 36.923 14.872C36.923 11.487 34.256 8.923 30.974 8.923C27.794 8.923 25.128 11.487 25.128 14.872C25.128 18.154 27.795 20.82 30.974 20.82ZM21.846 0H25.231V8.513C26.769 6.974 28.923 5.949 31.281 5.949C36.307 5.949 40.307 9.949 40.307 14.872C40.307 19.795 36.41 23.795 31.282 23.795C28.922 23.795 26.769 22.769 25.128 21.231V23.384H21.743V0H21.846ZM9.436 20.718C12.718 20.718 15.179 18.256 15.179 14.461V0H18.666V23.487H15.18V21.231C13.54 22.871 11.385 23.795 8.924 23.795C3.897 23.795 0 20.102 0 14.564V0H3.487V14.461C3.692 18.256 6.154 20.718 9.436 20.718Z" fill="white"/>
<path d="M78.564 0H95.076V3.897H82.974V9.744H94.768V13.538H82.975V19.487H95.077V23.487H78.564V0Z" fill="#5FB709"/>
</g>
<defs>
<clipPath id="clip0">
<path d="M0 0H149V24H0V0Z" fill="white"/>
</clipPath>
</defs>
</svg>
